<svg xmlns="http://www.w3.org/2000/svg" xmlns:xlink="http://www.w3.org/1999/xlink" width="100" zoomAndPan="magnify" viewBox="0 0 75 37.5" height="50" preserveAspectRatio="xMidYMid meet" version="1.0"><defs><clipPath id="a581451445"><path d="M 10.613281 6.632812 L 66.816406 6.632812 L 66.816406 33.28125 L 10.613281 33.28125 Z M 10.613281 6.632812 " clip-rule="nonzero"/></clipPath></defs><g clip-path="url(#a581451445)"><path fill="#000000" d="M 54.957031 7.429688 L 66.09375 18.566406 C 66.863281 19.335938 66.863281 20.601562 66.09375 21.375 L 54.980469 32.484375 C 54.210938 33.253906 52.941406 33.253906 52.171875 32.484375 C 51.402344 31.714844 51.402344 30.445312 52.171875 29.675781 L 59.878906 21.945312 L 12.601562 21.945312 C 11.507812 21.945312 10.613281 21.050781 10.613281 19.957031 C 10.613281 18.863281 11.507812 17.96875 12.601562 17.96875 L 59.878906 17.96875 L 52.148438 10.238281 C 51.75 9.839844 51.578125 9.34375 51.578125 8.820312 C 51.578125 8.300781 51.773438 7.804688 52.148438 7.40625 C 52.917969 6.660156 54.1875 6.660156 54.957031 7.429688 Z M 54.957031 7.429688 " fill-opacity="1" fill-rule="nonzero"/></g></svg>