<svg xmlns="http://www.w3.org/2000/svg" xmlns:xlink="http://www.w3.org/1999/xlink" width="100" zoomAndPan="magnify" viewBox="0 0 75 37.5" height="50" preserveAspectRatio="xMidYMid meet" version="1.0"><defs><clipPath id="ae08a9dc40"><path d="M 10.566406 6.632812 L 66.816406 6.632812 L 66.816406 33.28125 L 10.566406 33.28125 Z M 10.566406 6.632812 " clip-rule="nonzero"/></clipPath></defs><g clip-path="url(#ae08a9dc40)"><path fill="#000000" d="M 22.472656 7.429688 L 11.335938 18.566406 C 10.566406 19.335938 10.566406 20.601562 11.335938 21.375 L 22.449219 32.484375 C 23.21875 33.253906 24.484375 33.253906 25.257812 32.484375 C 26.027344 31.714844 26.027344 30.445312 25.257812 29.675781 L 17.550781 21.945312 L 64.828125 21.945312 C 65.921875 21.945312 66.816406 21.050781 66.816406 19.957031 C 66.816406 18.863281 65.921875 17.96875 64.828125 17.96875 L 17.550781 17.96875 L 25.28125 10.238281 C 25.679688 9.839844 25.851562 9.34375 25.851562 8.820312 C 25.851562 8.300781 25.65625 7.804688 25.28125 7.40625 C 24.511719 6.660156 23.242188 6.660156 22.472656 7.429688 Z M 22.472656 7.429688 " fill-opacity="1" fill-rule="nonzero"/></g></svg>